<?xml version="1.0" encoding="utf-8"?>
<?xml-stylesheet type="text/xsl" href="rss1.xsl"?>
<rss version="2.0" xmlns:atom="http://www.w3.org/2005/Atom" xmlns:content="http://purl.org/rss/1.0/modules/content/" xmlns:dc="http://purl.org/dc/elements/1.1/" xmlns:media="http://search.yahoo.com/mrss/">
<channel>
 <title>Getty</title>
 <link>http://www.gettyimg.com/</link>
 <atom:link href="http://www.gettyimg.com/" rel="self" type="application/rss+xml" />

 
                <item>
                <title><![CDATA[【UPSCALED】Pharrell Williams - Happy Lyric Video (feat. Minions) [4K AI Upscale | HEVC 10-bit | PCM 24-bit]]]></title>
                <link><![CDATA[https://sharemania.us/threads/pharrell-williams-happy-lyric-video-feat-minions-4k-ai-upscale-hevc-10-bit-pcm-24-bit.229839/]]></link>
                <description><![CDATA[<article>
<blockquote class="messageText SelectQuoteContainer ugc baseHtml">
<b><img src="https://images2.imgbox.com/ef/a9/XZXS4rns_o.jpg" class="bbCodeImage LbImage" alt="[​IMG]" data-url="https://images2.imgbox.com/ef/a9/XZXS4rns_o.jpg" style=""> <br>
<br>
Genre: <span style="color: rgb(0, 89, 179)">Funk / Soul</span><br>
Style: <span style="color: rgb(0, 89, 179)">Soul</span><br>
Year: <span style="color: rgb(0, 89, 179)">2013</span><br>
<b>Video Source: <span style="color: #0059b3">Vimeo, 1080p</span><br>
<b><b>Audio Source: <span style="color: rgb(0, 89, 179)">Q<b>obuz 24-bit</b></span></b></b></b></b><br>
<br>
"<b>Happy</b>" is a song written, produced, and performed by American singer Pharrell Williams, released as the first and only single from the soundtrack album for the film <i>Despicable Me 2</i> (2013). The song was first released on November 21, 2013, alongside a long-form music video. The song was reissued on December 16, 2013, by Back Lot Music under exclusive license to Columbia Records, a division of Sony Music. The song also served as the lead single from Williams' second studio album, <i>G I R L</i> (2014).<br>
<br>
"Happy" is an uptempo soul and neo soul song on which Williams's falsetto voice has been compared to Curtis Mayfield's by critics. The song has been highly successful, peaking at No. 1 in the United States, United Kingdom, Canada, Ireland, New Zealand, and 19 other countries. It was the best-selling song of 2014 in the United States with 6.45 million copies sold for the year, as well as in the United Kingdom with 1.5 million copies sold for the year. It reached No. 1 in the UK on a record-setting three occasions and became the most downloaded song of all time in the UK in September 2014; it is the eighth-highest-selling single of all time in the country. It was nominated for an Academy Award for Best Original Song. A live rendition of the song won the Grammy Award for Best Pop Solo Performance at the 57th Annual Grammy Awards.<br>
<br>
The music video for "Happy" was nominated for Best Male Video and Video of the Year at the 2014 MTV Video Music Awards. It also won the Grammy Award for Best Music Video at the 57th Annual Grammy Awards. The song was <i>Billboard</i>'s number-one single for 2014. A lyric video was also released which featured Minions. An official four-minute edit of the video was also released onto YouTube on November 21, 2013, and as of March 2018 has had over 1 billion views. It was nominated for Best Male Video and Video of the Year at the 2014 MTV Video Music Awards.<br>
<br>
"Happy" was the most successful song of 2014, with 13.9 million units (sales plus equivalent streams) worldwide.<br>
<br>
<b>Release Info</b><br>
The video track is upscaled to 4K with Topaz Video AI and encoded to HEVC 10-bit.<br>
The PCM track is lossless (Qobuz Hi-Res 24-bit) and synced with Adobe Audition.<br>
<br>
<div class="ToggleTriggerAnchor bbCodeSpoilerContainer">
<button type="button" class="button bbCodeSpoilerButton ToggleTrigger Tooltip JsOnly" data-target="> .SpoilerTarget"><span>Spoiler: <span class="SpoilerTitle">Media Info</span></span></button>
<div class="SpoilerTarget bbCodeSpoilerText">
<div class="bbCodeBlock bbCodeCode">
<div class="type">Code:</div>
<pre>General
Unique ID                      : 28029201934587541038647484429188838474 (0x15163A59C598A16AF56AF35F935DB44A)
Complete name                  : Pharrell Williams - Happy Lyric Video (feat. Minions).mkv
Format                         : Matroska
Format version                 : Version 4 / Version 2
File size                      : 284 MiB
Duration                       : 3 min 52 s
Overall bit rate               : 10.3 Mb/s
Frame rate                     : 23.976 FPS
Encoded date                   : 2023-10-05 11:05:21 UTC
Writing application            : mkvmerge v76.0 ('Celebration') 64-bit
Writing library                : libebml v1.4.4 + libmatroska v1.7.1

Video
ID                             : 1
Format                         : HEVC
Format/Info                    : High Efficiency Video Coding
Format profile                 : Main 10@L5@Main
Codec ID                       : V_MPEGH/ISO/HEVC
Duration                       : 3 min 52 s
Bit rate                       : 8 154 kb/s
Width                          : 3 840 pixels
Height                         : 2 160 pixels
Display aspect ratio           : 16:9
Frame rate mode                : Constant
Frame rate                     : 23.976 (23976/1000) FPS
Original frame rate            : 23.976 (24000/1001) FPS
Color space                    : YUV
Chroma subsampling             : 4:2:0
Bit depth                      : 10 bits
Bits/(Pixel*Frame)             : 0.041
Stream size                    : 226 MiB (79%)
Default                        : Yes
Forced                         : No
Color range                    : Limited
Color primaries                : BT.709
Transfer characteristics       : BT.709
Matrix coefficients            : BT.709

Audio
ID                             : 2
Format                         : PCM
Format settings                : Little / Signed
Codec ID                       : A_PCM/INT/LIT
Duration                       : 3 min 52 s
Bit rate mode                  : Constant
Bit rate                       : 2 117 kb/s
Channel(s)                     : 2 channels
Sampling rate                  : 44.1 kHz
Frame rate                     : 25.001 FPS (1764 SPF)
Bit depth                      : 24 bits
Delay relative to video        : -15 ms
Stream size                    : 58.6 MiB (21%)
Title                          : Lossless 24-bit
Language                       : English
Default                        : Yes
Forced                         : No
</pre>
</div></div>
</div><br>
<div class="bbCodeBlock bbCodeVfcHH HiddenContent">
<div class="attribution type">Hidden Content:</div>
<blockquote>You must reply before you can see the hidden data contained here.</blockquote>
</div>
<div class="messageTextEndMarker">&nbsp;</div>
</blockquote>
</article>]]></description>
                <author><![CDATA[ADHDerby]]></author>
                </item>

                </channel></rss>